<svg width="93" height="30" viewBox="0 0 93 30" fill="none" xmlns="http://www.w3.org/2000/svg">
<path d="M25.2614 16.7228C21.7367 16.7228 18.8555 19.6337 18.8555 23.1584C18.8555 26.6832 21.7466 29.5347 25.2614 29.5347C28.7763 29.5347 31.6673 26.6436 31.6673 23.1287C31.6673 19.6139 28.806 16.7228 25.2614 16.7228Z" fill="white" fill-opacity="0.3"/>
<path d="M21.0833 10.9406C23.0932 9.26733 23.806 6.48515 22.8952 4.0396C21.9843 1.53465 19.5981 0 17.0932 0C16.3803 0 15.6377 0.108911 14.9249 0.386139C12.1427 1.34653 10.4397 4.12871 10.8259 7.0099C10.9348 7.75248 11.1328 8.43564 11.212 9.15842C11.5189 11.8218 10.9051 14.1683 8.67734 15.8713C7.46942 16.802 5.98427 17.0495 4.54862 17.4356C1.2714 18.2871 -0.649395 21.6436 0.20209 24.9109C0.231793 25.0495 0.261496 25.2178 0.311001 25.3762C1.05357 28.1584 3.55852 30 6.3011 30C6.82585 30 7.37041 29.9208 7.89516 29.7822C11.1922 28.901 13.1724 25.4951 12.2912 22.1881C12.1823 21.6337 12.014 21.0891 11.9348 20.5347C11.2219 16.2673 13.5288 13.3069 17.7664 12.396C18.9645 12.1782 20.1229 11.6832 21.0833 10.9406Z" fill="white" fill-opacity="0.3"/>
<path d="M57.4596 17.099C57.1526 16.7723 57.0239 16.3564 57.0437 15.9208V11.8218H59.9051V9.53466H56.9942V7.16832L54.2418 6.03961V9.56436H52.2913V11.8218H54.1923V16.3069C54.113 17.3267 54.4695 18.3465 55.1823 19.0594C55.8952 19.7723 56.915 20.1584 57.9348 20.0792H59.9447V17.5446H58.6477C58.4299 17.5446 58.2319 17.5149 58.014 17.4654C57.816 17.3465 57.6279 17.2376 57.4596 17.099Z" fill="white" fill-opacity="0.3"/>
<path d="M69.7864 16.8812C68.6577 17.9505 66.8953 17.9505 65.7666 16.8812C65.2121 16.3268 64.9448 15.5644 64.9646 14.7921C64.9349 14.0198 65.2121 13.2476 65.7666 12.703C66.8953 11.6337 68.6775 11.6337 69.8062 12.703C70.3606 13.2575 70.628 14.0198 70.6082 14.7921C70.6082 15.1782 70.5488 15.5644 70.42 15.8911C70.2814 16.2476 70.0933 16.5743 69.8161 16.8515L69.7864 16.8812ZM70.6676 9.95052C68.8557 8.99013 66.6478 8.99013 64.8359 9.95052C63.9844 10.4159 63.2913 11.1089 62.7963 11.9307C61.8062 13.6931 61.8062 15.8317 62.7963 17.6238C63.2913 18.4456 63.9745 19.1683 64.8359 19.604C65.7171 20.099 66.7369 20.3466 67.7468 20.3169C68.7666 20.3169 69.7864 20.0693 70.6577 19.5743C71.5092 19.1089 72.222 18.4159 72.6973 17.5644C73.6874 15.802 73.6874 13.6337 72.6973 11.8713C72.2022 11.1089 71.5191 10.4258 70.6676 9.95052Z" fill="white" fill-opacity="0.3"/>
<path d="M91.0931 10.396C90.4297 9.62377 89.4396 9.21783 88.4297 9.23763C87.7961 9.23763 87.1624 9.37624 86.5882 9.70298C86.0337 10.0099 85.5387 10.4158 85.1822 10.9406C84.8753 10.4158 84.4396 10.0099 83.9149 9.70298C83.3604 9.39605 82.7367 9.26733 82.1228 9.26733C81.509 9.26733 80.9149 9.40595 80.3901 9.68317C79.8357 9.9604 79.3703 10.3465 78.9842 10.8119V9.51486H76.4792V20.0198H79.3109V14.3267C79.2515 13.6436 79.4495 12.9802 79.8357 12.4257C80.1921 11.9604 80.7664 11.7129 81.3505 11.7426C81.5684 11.7129 81.7862 11.7723 82.0139 11.8515C82.202 11.9307 82.4 12.0693 82.5387 12.2673C82.8456 12.7327 82.9743 13.3168 82.9248 13.8614V19.9901H85.707V14.297C85.6476 13.6139 85.8456 12.9505 86.2317 12.396C86.5882 11.9307 87.1426 11.6832 87.7169 11.7129C87.9347 11.6832 88.1525 11.7426 88.3802 11.8218C88.5684 11.901 88.7664 12.0396 88.905 12.2376C89.2119 12.703 89.3406 13.2871 89.3208 13.8317V19.9604H92.1525V13.3663C92.1426 12.2673 91.7862 11.2178 91.0931 10.396Z" fill="white" fill-opacity="0.3"/>
<path d="M46.2121 16.8515C45.0536 17.9505 43.2715 17.9505 42.113 16.8515C41.014 15.6931 41.014 13.8812 42.113 12.7228C43.2715 11.6238 45.0536 11.6238 46.2121 12.7228C46.7665 13.2772 47.0635 14.0198 47.0338 14.7822C47.0635 15.5644 46.7665 16.3069 46.2121 16.8515ZM47.3111 9.54455V10.5049C46.3804 9.68317 45.1625 9.23762 43.9051 9.26733C42.915 9.26733 41.9546 9.51485 41.0734 9.9802C40.2517 10.4455 39.5586 11.1386 39.0932 11.9604C38.6279 12.8416 38.3804 13.802 38.3804 14.7921C38.3804 15.7822 38.6279 16.7723 39.0932 17.6535C39.5586 18.4752 40.2517 19.198 41.0734 19.6634C41.9249 20.1584 42.915 20.4059 43.9051 20.4059C45.1427 20.4356 46.3507 19.9703 47.2913 19.1386V20.099H49.7962V9.59406H47.2913L47.3111 9.54455Z" fill="white" fill-opacity="0.3"/>
</svg>
