<svg width="101" height="37" viewBox="0 0 101 37" fill="none" xmlns="http://www.w3.org/2000/svg">
<path d="M28.9295 34.5141C27.3762 34.5141 25.8578 34.0535 24.5663 33.1905C23.2749 32.3276 22.2683 31.101 21.6739 29.666C21.0795 28.231 20.9239 26.6519 21.227 25.1285C21.53 23.6051 22.2779 22.2058 23.3763 21.1075C24.4746 20.0091 25.8739 19.2612 27.3973 18.9582C28.9207 18.6551 30.4998 18.8107 31.9348 19.4051C33.3698 19.9995 34.5964 21.0061 35.4593 22.2975C36.3223 23.589 36.7829 25.1074 36.7829 26.6607C36.7805 28.7428 35.9524 30.739 34.4801 32.2113C33.0078 33.6836 31.0116 34.5117 28.9295 34.5141Z" fill="black"/>
<path d="M8.74755 34.9966C7.06747 34.9944 5.43513 34.4375 4.10393 33.4126C2.77273 32.3876 1.81715 30.9518 1.38553 29.3281C1.33581 29.1468 1.29486 28.9625 1.25976 28.7782C0.763979 26.8513 1.04992 24.8064 2.05528 23.0894C3.06064 21.3723 4.70391 20.1222 6.62698 19.6115L7.36991 19.4214C8.58375 19.1289 9.73032 18.8364 10.6487 18.1257C12.5441 16.6632 13.2812 14.6947 12.9477 11.919C12.9039 11.5475 12.8278 11.1702 12.7488 10.7724C12.6699 10.3746 12.6026 10.0529 12.5499 9.67266C12.424 8.58869 12.5282 7.49033 12.8559 6.44942C13.1835 5.4085 13.7272 4.44847 14.4514 3.6321C15.1755 2.81573 16.0639 2.16141 17.0583 1.71192C18.0527 1.26244 19.1307 1.02791 20.222 1.02368C21.7836 1.0273 23.3065 1.50992 24.5851 2.4064C25.8638 3.30288 26.8366 4.57005 27.3723 6.03688C27.908 7.50372 27.9808 9.0996 27.5809 10.6091C27.181 12.1186 26.3276 13.4691 25.1359 14.4783L25.0978 14.5076C23.9408 15.396 22.5896 15.9975 21.155 16.2625C17.0865 17.1488 15.118 19.8894 15.7557 23.762C15.8054 24.0545 15.8785 24.3733 15.9575 24.7009C16.0189 24.9524 16.0774 25.201 16.1271 25.4497C16.422 26.5773 16.4542 27.7575 16.2213 28.8995C15.9885 30.0415 15.4967 31.1149 14.7839 32.037C14.0711 32.9591 13.1563 33.7055 12.1098 34.2186C11.0633 34.7316 9.91306 34.9978 8.74755 34.9966Z" fill="black"/>
<path d="M28.9294 19.8339C30.2802 19.8339 31.6007 20.2344 32.7238 20.9849C33.8469 21.7353 34.7223 22.802 35.2392 24.05C35.7562 25.2979 35.8914 26.6711 35.6279 27.996C35.3644 29.3208 34.7139 30.5377 33.7587 31.4929C32.8036 32.448 31.5867 33.0985 30.2618 33.362C28.937 33.6255 27.5638 33.4903 26.3158 32.9734C25.0679 32.4564 24.0012 31.5811 23.2508 30.4579C22.5003 29.3348 22.0998 28.0143 22.0998 26.6636C22.0998 24.8522 22.8193 23.1151 24.1001 21.8342C25.3809 20.5534 27.1181 19.8339 28.9294 19.8339ZM28.9294 17.7864C27.1737 17.7864 25.4574 18.3071 23.9976 19.2825C22.5377 20.2579 21.3999 21.6444 20.728 23.2664C20.0562 24.8885 19.8804 26.6734 20.2229 28.3954C20.5654 30.1174 21.4109 31.6991 22.6524 32.9406C23.8938 34.1821 25.4756 35.0276 27.1976 35.3701C28.9196 35.7126 30.7045 35.5368 32.3266 34.865C33.9486 34.1931 35.3351 33.0553 36.3105 31.5954C37.2859 30.1356 37.8066 28.4193 37.8066 26.6636C37.8035 24.3102 36.8672 22.054 35.2031 20.3899C33.539 18.7258 31.2828 17.7895 28.9294 17.7864Z" fill="#FFD700"/>
<path d="M20.222 2.04745C21.5768 2.04713 22.899 2.46349 24.0091 3.24006C25.1193 4.01663 25.9638 5.11584 26.4281 6.38863C26.8924 7.66142 26.954 9.04621 26.6046 10.3552C26.2552 11.6642 25.5116 12.8341 24.4748 13.7062C23.4451 14.4952 22.2417 15.0267 20.9649 15.2564C16.4635 16.2304 14.0007 19.3951 14.7436 23.9258C14.8401 24.5108 15.0127 25.0958 15.1297 25.6808C15.3528 26.5179 15.4087 27.3909 15.2942 28.2496C15.1797 29.1084 14.897 29.9362 14.4624 30.6857C14.0277 31.4351 13.4497 32.0916 12.7612 32.6175C12.0726 33.1434 11.2872 33.5285 10.4498 33.7506C9.89659 33.899 9.32618 33.9737 8.75339 33.9729C7.2976 33.9731 5.88261 33.4919 4.7288 32.6042C3.57499 31.7165 2.74712 30.4721 2.37414 29.0649C2.32929 28.8972 2.29127 28.7276 2.26007 28.556C1.81869 26.8874 2.05823 25.1118 2.926 23.6198C3.79377 22.1278 5.21868 21.0416 6.88729 20.6002C8.40532 20.1995 9.97893 19.9392 11.2747 18.933C13.6321 17.1195 14.2961 14.6334 13.9627 11.7991C13.872 11.0357 13.6702 10.2928 13.5619 9.52939C13.3564 8.02889 13.6787 6.50359 14.4737 5.21451C15.2687 3.92543 16.487 2.95271 17.9201 2.46279C18.6567 2.18915 19.4361 2.04852 20.222 2.04745ZM20.222 6.27746e-06C18.9848 0.00378297 17.7624 0.269145 16.635 0.778679C15.5075 1.28821 14.5006 2.0304 13.6803 2.95653C12.8599 3.88266 12.2447 4.9718 11.875 6.15246C11.5053 7.33313 11.3894 8.57864 11.535 9.80725C11.5935 10.2255 11.6695 10.6058 11.7426 10.9772C11.8158 11.3487 11.8918 11.7114 11.9298 12.0448C12.2223 14.4579 11.6374 16.0841 10.0286 17.3097C9.27402 17.8946 8.2737 18.1433 7.12421 18.4299L6.36665 18.62C4.18747 19.1992 2.32446 20.6141 1.18172 22.5579C0.0389784 24.5017 -0.291362 26.8177 0.26235 29.0035C0.300374 29.1995 0.344247 29.3983 0.396896 29.5885C0.978698 31.8067 2.41785 33.7029 4.39777 34.8601C5.37812 35.433 6.46173 35.8072 7.58671 35.9614C8.7117 36.1156 9.85603 36.0467 10.9544 35.7586C12.0527 35.4705 13.0836 34.9689 13.9881 34.2824C14.8926 33.596 15.653 32.7381 16.226 31.7577C16.7989 30.7774 17.1732 29.6938 17.3273 28.5688C17.4815 27.4438 17.4126 26.2994 17.1245 25.2011C17.0718 24.9379 17.0104 24.6863 16.9549 24.4435C16.8788 24.1335 16.8086 23.841 16.7647 23.5661C16.0335 19.1377 19.3006 17.7162 21.3481 17.257C22.9422 16.9715 24.4458 16.3119 25.7355 15.3324L25.7735 15.3032L25.8086 15.2739C27.1665 14.1299 28.1398 12.596 28.5963 10.8801C29.0528 9.16419 28.9705 7.3494 28.3606 5.68186C27.7507 4.01432 26.6426 2.57471 25.1867 1.55831C23.7308 0.541896 21.9976 -0.00213171 20.222 6.27746e-06Z" fill="#0057B8"/>
<path d="M63.1744 20.2463C63.019 20.0769 62.8991 19.878 62.8217 19.6615C62.7444 19.445 62.7111 19.2152 62.7239 18.9857V14.6246H65.7542V12.1911H62.6567V9.67566L59.7318 8.47644V12.2057H57.6404V14.6246H59.6645V19.3922C59.6164 19.929 59.6865 20.4698 59.8697 20.9766C60.053 21.4834 60.345 21.9439 60.7252 22.3258C61.1054 22.7077 61.5647 23.0017 62.0707 23.1872C62.5766 23.3726 63.1171 23.4451 63.6541 23.3994H65.8068V20.688H64.4262C64.2 20.6992 63.9737 20.6675 63.7594 20.5944C63.5429 20.519 63.3439 20.4006 63.1744 20.2463Z" fill="black"/>
<path d="M76.2751 20.0006C75.6965 20.5488 74.9297 20.8544 74.1326 20.8544C73.3355 20.8544 72.5687 20.5488 71.9901 20.0006C71.7058 19.7062 71.4843 19.3571 71.339 18.9744C71.1937 18.5918 71.1276 18.1837 71.1448 17.7747C71.1276 17.3673 71.1926 16.9605 71.3358 16.5786C71.479 16.1967 71.6975 15.8475 71.9784 15.5518C72.5577 15.0025 73.3256 14.6963 74.1238 14.6963C74.9221 14.6963 75.69 15.0025 76.2693 15.5518C76.5525 15.8464 76.7734 16.1951 76.9186 16.5771C77.0639 16.959 77.1305 17.3664 77.1146 17.7747C77.127 18.1738 77.0604 18.5714 76.9186 18.9447C76.7752 19.3223 76.5562 19.6667 76.2751 19.9567V20.0006ZM77.214 12.6415C76.2574 12.1371 75.1922 11.8735 74.1107 11.8735C73.0292 11.8735 71.964 12.1371 71.0073 12.6415C70.1057 13.1364 69.3579 13.8701 68.8458 14.7621C68.3323 15.6863 68.0629 16.7262 68.0629 17.7835C68.0629 18.8408 68.3323 19.8807 68.8458 20.805C69.3631 21.6969 70.1147 22.4303 71.019 22.9255C71.9656 23.4423 73.0294 23.7062 74.1078 23.6918C75.1942 23.7088 76.2658 23.4384 77.214 22.908C78.1187 22.4139 78.8689 21.6789 79.3814 20.7845C79.8992 19.8611 80.1711 18.8202 80.1711 17.7616C80.1711 16.7029 79.8992 15.662 79.3814 14.7387C78.863 13.8556 78.1136 13.1306 77.214 12.6415Z" fill="black"/>
<path d="M98.9315 13.0919C98.5776 12.6901 98.1391 12.3716 97.6476 12.1592C97.1561 11.9468 96.6236 11.8458 96.0885 11.8634C95.4042 11.8578 94.7295 12.0237 94.1259 12.346C93.529 12.6591 93.0147 13.1091 92.6254 13.6593C92.3099 13.1053 91.8459 12.6505 91.2858 12.346C90.6993 12.0273 90.0402 11.8661 89.3729 11.878C88.7286 11.8785 88.0938 12.0329 87.5214 12.3285C86.9442 12.6157 86.4385 13.0285 86.0414 13.5365V12.1501H83.3563V23.3379H86.3807V17.295C86.3311 16.575 86.527 15.8594 86.9364 15.2651C87.1276 15.0256 87.3728 14.8348 87.6519 14.7082C87.931 14.5816 88.2361 14.5229 88.5422 14.5368C88.7781 14.5183 89.0147 14.5606 89.2296 14.6596C89.4502 14.7543 89.6434 14.9032 89.7911 15.0925C90.1061 15.6019 90.2534 16.1973 90.2123 16.7948V23.3115H93.1548V17.257C93.1052 16.537 93.3011 15.8214 93.7105 15.2271C93.8974 14.9893 94.138 14.7993 94.4125 14.6727C94.6871 14.5461 94.9879 14.4865 95.29 14.4988C95.5276 14.4827 95.7656 14.5248 95.9832 14.6216C96.202 14.7181 96.3938 14.8667 96.5418 15.0545C96.8607 15.5616 97.0121 16.156 96.9747 16.7539V23.2764H99.9991V16.2566C100.048 15.1058 99.6677 13.9778 98.9315 13.0919Z" fill="black"/>
<path d="M51.2085 19.9889C50.6221 20.5506 49.8415 20.8641 49.0295 20.8641C48.2175 20.8641 47.4368 20.5506 46.8504 19.9889C46.2894 19.3962 45.9768 18.6112 45.9768 17.7952C45.9768 16.9792 46.2894 16.1941 46.8504 15.6015C47.4375 15.0411 48.2179 14.7285 49.0295 14.7285C49.8411 14.7285 50.6215 15.0411 51.2085 15.6015C51.7735 16.1921 52.0888 16.9779 52.0888 17.7952C52.0888 18.6125 51.7735 19.3983 51.2085 19.9889ZM52.3785 12.2057V13.2294C51.3791 12.3553 50.0877 11.8886 48.7604 11.922C47.7086 11.9103 46.6723 12.1767 45.7565 12.6941C44.8732 13.1911 44.146 13.9244 43.6564 14.8118C43.1582 15.7404 42.8975 16.7779 42.8975 17.8318C42.8975 18.8856 43.1582 19.9231 43.6564 20.8517C44.1475 21.7424 44.878 22.478 45.7653 22.9752C46.685 23.4982 47.7258 23.7705 48.7838 23.7649C50.1089 23.7831 51.3933 23.3077 52.3873 22.4312V23.4432H55.0402V12.2554H52.3639L52.3785 12.2057Z" fill="black"/>
</svg>
