<svg width="534" height="497" viewBox="0 0 534 497" fill="none" xmlns="http://www.w3.org/2000/svg">
<path d="M77.11 2.99999V25.44H29.51V53.66H75.75V76.1H29.51V122H6.05V2.99999H77.11ZM187.492 122H161.992L154.852 100.58H107.422L100.282 122H74.9518L116.602 2.99999H145.672L187.492 122ZM131.222 30.03L114.902 78.65H147.542L131.222 30.03ZM247.77 124.38C229.977 124.38 215.187 118.43 203.4 106.53C191.727 94.7433 185.89 80.0667 185.89 62.5C185.89 44.82 191.727 30.1433 203.4 18.47C215.187 6.56999 229.977 0.619992 247.77 0.619992C258.537 0.619992 268.453 3.16999 277.52 8.26999C286.7 13.2567 293.84 20.0567 298.94 28.67L278.71 40.4C275.763 35.0733 271.57 30.9367 266.13 27.99C260.69 24.93 254.57 23.4 247.77 23.4C236.21 23.4 226.86 27.0267 219.72 34.28C212.693 41.6467 209.18 51.0533 209.18 62.5C209.18 73.8333 212.693 83.1833 219.72 90.55C226.86 97.8033 236.21 101.43 247.77 101.43C254.57 101.43 260.69 99.9567 266.13 97.01C271.683 93.95 275.877 89.8133 278.71 84.6L298.94 96.33C293.84 104.943 286.7 111.8 277.52 116.9C268.453 121.887 258.537 124.38 247.77 124.38ZM333.412 72.87V99.56H383.562V122H309.952V2.99999H382.712V25.44H333.412V50.77H378.462V72.87H333.412ZM77.96 184.29C88.3867 190.297 93.6 199.363 93.6 211.49C93.6 221.577 90.03 229.85 82.89 236.31C75.75 242.77 66.9667 246 56.54 246H6.05V127H52.97C63.0567 127 71.6133 130.173 78.64 136.52C85.6667 142.867 89.18 150.857 89.18 160.49C89.18 170.35 85.44 178.283 77.96 184.29ZM52.97 148.93H29.51V175.11H52.97C56.5967 175.11 59.6 173.863 61.98 171.37C64.4733 168.877 65.72 165.76 65.72 162.02C65.72 158.28 64.53 155.163 62.15 152.67C59.77 150.177 56.71 148.93 52.97 148.93ZM29.51 224.07H56.54C60.5067 224.07 63.7933 222.767 66.4 220.16C69.0067 217.44 70.31 214.04 70.31 209.96C70.31 205.993 69.0067 202.707 66.4 200.1C63.7933 197.38 60.5067 196.02 56.54 196.02H29.51V224.07ZM205.71 230.53C193.696 242.43 179.076 248.38 161.85 248.38C144.623 248.38 130.003 242.43 117.99 230.53C106.09 218.403 100.14 203.727 100.14 186.5C100.14 169.16 106.09 154.54 117.99 142.64C130.003 130.627 144.623 124.62 161.85 124.62C179.076 124.62 193.696 130.627 205.71 142.64C217.723 154.54 223.73 169.16 223.73 186.5C223.73 203.84 217.723 218.517 205.71 230.53ZM134.48 214.55C141.733 221.803 150.856 225.43 161.85 225.43C172.843 225.43 181.966 221.803 189.22 214.55C196.586 207.183 200.27 197.833 200.27 186.5C200.27 175.167 196.586 165.817 189.22 158.45C181.853 151.083 172.73 147.4 161.85 147.4C150.97 147.4 141.846 151.083 134.48 158.45C127.113 165.817 123.43 175.167 123.43 186.5C123.43 197.833 127.113 207.183 134.48 214.55ZM336.948 230.53C324.935 242.43 310.315 248.38 293.088 248.38C275.862 248.38 261.242 242.43 249.228 230.53C237.328 218.403 231.378 203.727 231.378 186.5C231.378 169.16 237.328 154.54 249.228 142.64C261.242 130.627 275.862 124.62 293.088 124.62C310.315 124.62 324.935 130.627 336.948 142.64C348.962 154.54 354.968 169.16 354.968 186.5C354.968 203.84 348.962 218.517 336.948 230.53ZM265.718 214.55C272.972 221.803 282.095 225.43 293.088 225.43C304.082 225.43 313.205 221.803 320.458 214.55C327.825 207.183 331.508 197.833 331.508 186.5C331.508 175.167 327.825 165.817 320.458 158.45C313.092 151.083 303.968 147.4 293.088 147.4C282.208 147.4 273.085 151.083 265.718 158.45C258.352 165.817 254.668 175.167 254.668 186.5C254.668 197.833 258.352 207.183 265.718 214.55ZM415.317 184.8L461.047 246H434.017L391.517 190.24V246H368.057V127H391.517V179.53L432.317 127H459.347L415.317 184.8ZM505.53 176.13H533.58V196.7H505.53V224.75H484.96V196.7H457.08V176.13H484.96V148.25H505.53V176.13ZM6.05 370V251H29.51V370H6.05ZM116.988 323.59V251H140.448V370H122.598L71.5983 297.24V370H48.1383V251H65.9883L116.988 323.59ZM197.927 372.38C186.254 372.38 176.394 369.773 168.347 364.56C160.3 359.347 154.577 352.15 151.177 342.97L171.237 331.24C175.884 343.367 185.007 349.43 198.607 349.43C204.954 349.43 209.714 348.297 212.887 346.03C216.06 343.763 217.647 340.703 217.647 336.85C217.647 332.657 215.777 329.427 212.037 327.16C208.297 324.78 201.61 322.23 191.977 319.51C181.55 316.337 173.334 312.653 167.327 308.46C159.847 302.907 156.107 294.747 156.107 283.98C156.107 273.1 159.904 264.543 167.497 258.31C175.09 251.85 184.327 248.62 195.207 248.62C204.727 248.62 213.17 250.943 220.537 255.59C227.904 260.237 233.627 266.81 237.707 275.31L217.987 286.7C213.227 276.5 205.634 271.4 195.207 271.4C190.447 271.4 186.65 272.533 183.817 274.8C180.984 276.953 179.567 279.787 179.567 283.3C179.567 287.04 181.097 290.1 184.157 292.48C187.557 294.86 193.564 297.353 202.177 299.96L210.337 302.68C211.81 303.133 214.36 304.097 217.987 305.57C221.387 306.817 223.88 308.007 225.467 309.14C231.02 312.54 234.76 316.053 236.687 319.68C239.634 324.44 241.107 330.05 241.107 336.51C241.107 347.503 237.084 356.23 229.037 362.69C220.99 369.15 210.62 372.38 197.927 372.38ZM239.852 251H327.402V273.44H295.272V370H271.812V273.44H239.852V251ZM430.466 370H404.966L397.826 348.58H350.396L343.256 370H317.926L359.576 251H388.646L430.466 370ZM374.196 278.03L357.876 326.65H390.516L374.196 278.03ZM63.17 430.08H122.84V439.26C122.84 456.26 117.4 470.03 106.52 480.57C95.64 491.11 81.5867 496.38 64.36 496.38C46 496.38 30.7567 490.43 18.63 478.53C6.61667 466.517 0.61 451.897 0.61 434.67C0.61 417.33 6.56 402.653 18.46 390.64C30.4733 378.627 45.32 372.62 63 372.62C73.9933 372.62 84.08 375.113 93.26 380.1C102.44 385.087 109.637 391.83 114.85 400.33L94.79 411.89C91.9567 407.017 87.65 403.05 81.87 399.99C76.09 396.93 69.7433 395.4 62.83 395.4C51.3833 395.4 42.0333 399.14 34.78 406.62C27.5267 413.873 23.9 423.223 23.9 434.67C23.9 445.89 27.5833 455.183 34.95 462.55C42.3167 469.803 52.1767 473.43 64.53 473.43C73.4833 473.43 80.9633 471.447 86.97 467.48C92.9767 463.513 97.0567 457.96 99.21 450.82H63.17V430.08ZM226.737 494H201.407L177.437 452.69H159.587V494H136.127V375H183.727C194.72 375 204.07 378.853 211.777 386.56C219.483 394.267 223.337 403.56 223.337 414.44C223.337 421.807 221.24 428.663 217.047 435.01C212.853 441.243 207.3 445.947 200.387 449.12L226.737 494ZM183.727 396.93H159.587V432.12H183.727C188.147 432.12 191.943 430.42 195.117 427.02C198.29 423.507 199.877 419.313 199.877 414.44C199.877 409.567 198.29 405.43 195.117 402.03C191.943 398.63 188.147 396.93 183.727 396.93ZM339.15 494H313.65L306.51 472.58H259.08L251.94 494H226.61L268.26 375H297.33L339.15 494ZM282.88 402.03L266.56 450.65H299.2L282.88 402.03ZM439.615 375H463.755V494H440.465V416.82L406.975 472.07H404.255L370.765 416.99V494H347.305V375H371.445L405.615 431.27L439.615 375Z" fill="black" fill-opacity="0.03"/>
</svg>
