<svg width="31" height="31" viewBox="0 0 31 31" fill="none" xmlns="http://www.w3.org/2000/svg">
<path fill-rule="evenodd" clip-rule="evenodd" d="M15.5 31C24.0604 31 31 24.0604 31 15.5C31 6.93959 24.0604 0 15.5 0C6.93959 0 0 6.93959 0 15.5C0 24.0604 6.93959 31 15.5 31ZM17.0848 5.00639C15.8495 5.03708 14.5461 5.30204 13.6254 6.08161C12.865 6.7084 12.482 7.62061 12.3959 8.53249C12.3697 9.18477 12.3734 9.83872 12.3772 10.4924C12.38 10.9826 12.3828 11.4726 12.373 11.9618C12.0348 11.9639 11.6956 11.9633 11.3562 11.9627C10.9037 11.9619 10.4509 11.961 10 11.9669C10 12.3572 10.0006 12.748 10.0013 13.1393C10.0025 13.9228 10.0038 14.7078 10 15.493C10.451 15.4988 10.9039 15.498 11.3565 15.4971C11.6957 15.4965 12.0349 15.4959 12.373 15.4981C12.3806 17.0538 12.3792 18.6096 12.3778 20.1652C12.376 22.1102 12.3742 24.0551 12.3902 26C13.3181 25.9942 14.244 25.995 15.1702 25.9958C15.865 25.9965 16.5601 25.9971 17.2562 25.9949C17.262 24.2444 17.2605 22.4954 17.2591 20.7463C17.2577 18.9973 17.2562 17.2483 17.262 15.4981C17.7299 15.4959 18.1979 15.4965 18.6659 15.4971C19.2901 15.498 19.9142 15.4988 20.5384 15.493C20.7328 14.3209 20.8985 13.1386 20.99 11.9515C20.3726 11.949 19.7552 11.949 19.1378 11.949C18.5201 11.949 17.9025 11.949 17.2849 11.9464C17.2849 11.7413 17.2845 11.5362 17.2842 11.3311C17.2831 10.7158 17.282 10.1006 17.2906 9.4853C17.3878 9.01129 17.9366 8.64948 18.4685 8.68016H20.9957C21.0014 7.45216 21.0014 6.22928 20.9957 5.00128C20.6699 5.00128 20.3441 5.00096 20.0183 5.00064C19.0406 4.99968 18.0627 4.99872 17.0848 5.00639Z" fill="white"/>
</svg>
