<svg width="19" height="23" viewBox="0 0 19 23" fill="none" xmlns="http://www.w3.org/2000/svg">
<path d="M0.619273 1.14337L0.845546 10.4432C0.868173 11.4048 2.03348 11.8913 2.72361 11.2238C6.25347 7.79579 15.4515 8.85927 15.7909 14.7197C15.9719 17.8876 13.1435 19.0642 10.5979 19.9579C9.07056 20.4897 7.63373 20.8065 6.10639 20.0937C4.57905 19.381 3.39112 18.2835 2.12399 17.3219C0.992623 16.462 -0.1048 18.374 1.01525 19.2226C3.50425 21.1119 5.948 23.205 9.28552 22.6167C10.8129 22.3451 12.3628 21.7229 13.777 21.078C15.0668 20.4897 16.2321 19.6638 17.0241 18.4646C18.4269 16.3376 18.2799 13.4413 16.9788 11.303C15.5872 9.00635 12.9738 7.68265 10.3829 7.28668C7.21513 6.80019 3.54951 7.36587 1.17364 9.67385L3.05171 10.4545L2.82543 1.15468C2.79149 -0.259522 0.585332 -0.270835 0.619273 1.15468V1.14337Z" fill="#BABABA"/>
<path d="M1.06065 2.20685C5.17882 2.3313 9.29698 2.34261 13.4038 2.24079C14.818 2.20685 14.8294 0.000686777 13.4038 0.0346277C9.29698 0.13645 5.17882 0.125137 1.06065 0.000686776C-0.353551 -0.0445678 -0.353551 2.16159 1.06065 2.20685Z" fill="#BABABA"/>
</svg>
