<svg width="19" height="22" viewBox="0 0 19 22" fill="none" xmlns="http://www.w3.org/2000/svg">
<path d="M12.1036 0.312964C7.8211 4.43726 3.56121 8.59545 0.171382 13.5107C-0.325793 14.2339 0.340873 15.1378 1.12053 15.1717C6.39737 15.3525 11.6629 15.522 16.9397 15.7028C18.3635 15.748 18.3522 13.5446 16.9397 13.4994C11.6629 13.3186 6.39737 13.1491 1.12053 12.9683L2.06969 14.6293C5.34652 9.88358 9.51601 5.86099 13.6629 1.87229C14.6912 0.889235 13.1318 -0.670087 12.1036 0.312964Z" fill="#BABABA"/>
<path d="M10.2729 9.98529C10.0695 13.6011 10.0243 17.2282 10.1147 20.844C10.1486 22.0305 12.0469 22.4034 12.2842 21.1378C12.3181 20.9796 12.3407 20.8101 12.3746 20.652C12.4763 20.0644 12.2164 19.4655 11.6062 19.296C11.0752 19.1491 10.352 19.4768 10.2503 20.0644C10.2164 20.2226 10.1938 20.3921 10.1599 20.5503L12.3294 20.844C12.239 17.2169 12.2842 13.6011 12.4876 9.98529C12.5667 8.57286 10.3633 8.57286 10.2842 9.98529H10.2729Z" fill="#BABABA"/>
</svg>
