<svg width="32" height="43" viewBox="0 0 32 43" fill="none" xmlns="http://www.w3.org/2000/svg">
<g clip-path="url(#clip0_2243_683)">
<path d="M4.61951 18.6771C10.2724 18.5976 15.9154 18.6771 21.5583 18.9454C24.3302 19.0747 27.7875 18.7168 29.1287 21.7087C30.1619 24.0148 29.9433 26.798 29.9831 29.2531C30.0029 30.764 30.0327 32.2749 30.0526 33.7857C30.0725 35.0878 30.3805 36.9267 29.7248 38.1295C29.0194 39.4316 27.0026 39.6801 25.7012 39.9882C24.1414 40.356 22.5618 40.6442 20.9722 40.8232C17.9222 41.1611 14.8325 41.1512 11.7825 40.7933C10.1929 40.6045 8.6133 40.3162 7.06347 39.9286C5.75208 39.6105 4.16251 39.3123 3.32798 38.1394C2.39411 36.8373 2.51333 34.9189 2.45372 33.3981C2.38418 31.6188 2.3047 29.8495 2.23516 28.0703C2.16561 26.291 2.0762 24.5217 2.01659 22.7425C1.96692 21.2515 1.8775 19.5617 3.02001 18.4286C3.9042 17.5539 2.5332 16.1822 1.649 17.0569C-0.665807 19.353 0.099173 23.2097 0.218391 26.132C0.287934 27.9112 0.367413 29.6805 0.436956 31.4598C0.5065 33.239 0.466761 35.0978 0.794609 36.8571C1.4205 40.187 4.00355 41.2009 6.99393 41.9066C10.5108 42.7316 14.147 43.0895 17.7533 42.9801C21.3597 42.8708 25.3038 42.3937 28.7511 41.1412C32.1985 39.8888 32.0396 37.0559 31.9899 34.0143C31.9402 30.6646 32.129 27.1856 31.672 23.8657C31.3243 21.341 30.2811 18.7765 27.7676 17.7427C25.9197 16.9773 23.744 17.0966 21.7868 17.0072C19.9787 16.9276 18.1606 16.8481 16.3426 16.7984C12.4382 16.6792 8.52389 16.6792 4.61951 16.7388C3.37766 16.7587 3.36772 18.697 4.61951 18.6771Z" fill="#BABABA"/>
<path d="M6.33832 17.0768C6.31845 15.1783 5.63295 13.4388 5.35478 11.58C5.10641 9.92007 5.48393 8.33962 6.4178 6.94804C8.2458 4.19469 11.9813 2.01785 15.2896 1.91845C17.2169 1.86875 18.7966 2.76334 20.1676 4.04559C21.5386 5.32784 23.1182 6.91822 23.7938 8.71734C25.0058 11.9677 24.3203 15.5659 25.9298 18.7368C26.496 19.85 28.1651 18.866 27.5988 17.7626C26.1185 14.8503 26.7643 11.4111 25.7211 8.37938C25.1946 6.85858 24.2706 5.61609 23.2076 4.42331C22.1446 3.23052 21.0021 2.02779 19.6311 1.17296C14.5147 -2.01775 6.80526 1.82899 4.26195 6.79894C3.54664 8.19053 3.21879 9.72127 3.37775 11.2818C3.57645 13.2499 4.37123 15.0988 4.40104 17.0867C4.4209 18.3292 6.35819 18.3392 6.33832 17.0867V17.0768Z" fill="#BABABA"/>
<path d="M19.5614 24.9591C18.4884 24.303 17.1671 24.0049 15.9153 24.144C15.2199 24.2235 14.5741 24.3925 13.9383 24.6907C13.3323 24.969 12.7064 25.3865 12.3885 25.9829C11.6632 27.3546 12.7262 28.8456 13.8985 29.5314C14.9715 30.1576 16.3624 30.3266 17.5347 29.8694C18.8659 29.3426 19.919 28.1995 20.2171 26.7781C20.3264 26.2811 20.0681 25.7046 19.5415 25.5853C19.0547 25.476 18.4586 25.7344 18.3493 26.2612C18.3295 26.3606 18.3096 26.46 18.2798 26.5495C18.2599 26.5992 18.1705 26.8477 18.2401 26.6787C18.1506 26.8874 18.0314 27.0862 17.9023 27.2751C18.0016 27.1359 17.8526 27.3347 17.8129 27.3844C17.7433 27.454 17.6738 27.5335 17.6042 27.6031C17.5744 27.6329 17.5446 27.6627 17.5049 27.6926C17.485 27.7124 17.3459 27.8218 17.4353 27.7522C17.5247 27.6926 17.4055 27.7721 17.3956 27.782C17.336 27.8218 17.2764 27.8615 17.2168 27.9013C17.1274 27.951 17.0379 28.0007 16.9485 28.0404C16.7796 28.0901 16.9088 28.0603 16.9485 28.0404C16.9088 28.0504 16.869 28.0703 16.8293 28.0802C16.73 28.11 16.6306 28.1398 16.5313 28.1597C16.4717 28.1697 16.412 28.1796 16.3524 28.1895C16.4518 28.1697 16.422 28.1895 16.3425 28.1895C16.1339 28.1895 15.9252 28.1995 15.7166 28.1697C15.9153 28.1995 15.5676 28.1299 15.5279 28.12C15.4086 28.0901 15.2993 28.0504 15.1801 28.0106C15.1801 28.0106 15.041 27.951 15.1305 27.9907C15.2298 28.0404 15.0609 27.951 15.041 27.9411C14.9516 27.8914 14.8523 27.8417 14.7728 27.782C14.7331 27.7621 14.6933 27.7323 14.6635 27.7025C14.5344 27.613 14.7629 27.792 14.6437 27.6926C14.5542 27.613 14.4648 27.5335 14.3853 27.4441C14.3655 27.4242 14.2463 27.285 14.3158 27.3745C14.3754 27.454 14.286 27.3347 14.286 27.3248C14.2562 27.2751 14.2264 27.2154 14.1867 27.1657C14.1867 27.1657 14.1171 27.0266 14.1568 27.116C14.1966 27.2154 14.137 27.0465 14.127 27.0166C14.1171 26.9769 14.1072 26.9272 14.0972 26.8874C14.127 27.0465 14.1072 26.8874 14.1072 26.8874C14.0774 26.8874 14.1072 27.0564 14.1072 26.8874C14.1072 26.9968 14.0575 26.9471 14.1171 26.8675C14.0873 26.8974 14.0078 26.9769 14.137 26.8477C14.1668 26.8178 14.3456 26.6787 14.2363 26.7582C14.445 26.6091 14.6635 26.4898 14.892 26.3805C14.892 26.3805 15.041 26.3109 14.9516 26.3507C14.8523 26.3904 15.0311 26.3208 15.051 26.3109C15.1503 26.2711 15.2596 26.2413 15.359 26.2115C15.4583 26.1817 15.5676 26.1519 15.6769 26.132C15.7265 26.122 15.7663 26.1121 15.816 26.1022C15.816 26.1022 16.0743 26.0624 15.965 26.0723C15.8557 26.0922 16.0445 26.0723 16.0743 26.0723C16.1537 26.0723 16.2332 26.0624 16.3127 26.0525C16.4419 26.0525 16.5611 26.0525 16.6902 26.0525C16.8194 26.0525 16.9386 26.0624 17.0677 26.0823C17.0677 26.0823 17.2267 26.1022 17.1274 26.0823C17.0081 26.0624 17.2565 26.1121 17.2764 26.1121C17.5247 26.1618 17.7632 26.2314 18.0016 26.3208C18.1804 26.3805 18.0712 26.3407 18.0314 26.3208C18.101 26.3507 18.1705 26.3904 18.2401 26.4202C18.3692 26.4799 18.4884 26.5495 18.6076 26.629C19.0448 26.8974 19.6905 26.7383 19.929 26.2811C20.1674 25.8239 20.0482 25.2374 19.5812 24.9591H19.5614Z" fill="#BABABA"/>
<path d="M15.836 28.776C16.0645 30.6845 16.293 32.6029 16.5215 34.5113C16.5811 35.0083 16.9288 35.5053 17.4852 35.4755C17.962 35.4556 18.5184 35.0481 18.4489 34.5113C18.2204 32.6029 17.9919 30.6845 17.7634 28.776C17.7037 28.279 17.356 27.782 16.7997 27.8119C16.3228 27.8317 15.7665 28.2393 15.836 28.776Z" fill="#BABABA"/>
</g>
<defs>
<clipPath id="clip0_2243_683">
<rect width="32" height="43" fill="white"/>
</clipPath>
</defs>
</svg>
