<svg width="18" height="24" viewBox="0 0 18 24" fill="none" xmlns="http://www.w3.org/2000/svg">
<path d="M1.64131 9.95645C5.17803 7.80955 8.31927 5.09769 10.9181 1.87735L9.18933 1.65136C9.48312 2.27283 9.34752 3.31238 9.39272 3.97905C9.43792 4.7926 9.49442 5.60616 9.53961 6.43102C9.64131 8.12594 9.743 9.83215 9.8447 11.5271C10.0481 14.9282 10.2515 18.3293 10.4662 21.7192C10.5566 23.1316 12.76 23.1429 12.6696 21.7192C12.4436 18.0468 12.2289 14.3745 12.0029 10.7135C11.9012 8.9508 11.7882 7.17679 11.6865 5.41407C11.5961 3.85475 11.7769 1.97905 11.0989 0.544017C10.8165 -0.054853 9.7995 -0.201746 9.37012 0.318028C6.86165 3.40277 3.9125 6.00164 0.522665 8.05814C-0.686375 8.7926 0.42097 10.7022 1.63001 9.95645H1.64131Z" fill="#F8871F"/>
<path d="M5.57358 23.5158C7.60748 23.2672 9.64138 23.0525 11.6866 22.9056C12.6922 22.8265 13.6979 22.77 14.7035 22.7248C15.2233 22.7022 15.7431 22.6796 16.2628 22.657C16.7826 22.6344 17.2798 22.6344 17.6753 22.2276C18.0143 21.8774 18.1047 21.3124 17.8448 20.8943C17.6075 20.4988 17.2572 20.318 16.8052 20.2954C16.3306 20.2728 15.8674 20.657 15.7431 21.109V21.1542C15.3589 22.5214 17.4832 23.109 17.8561 21.7418V21.6966C17.5171 21.9678 17.1555 22.2389 16.8052 22.5101H16.873C16.5566 22.3293 16.2403 22.1486 15.9239 21.9678L15.9578 22.013L16.1273 20.6796L16.0595 20.7587L16.5453 20.4762C16.1499 20.544 15.6753 20.4988 15.2685 20.5101C14.8165 20.5327 14.3758 20.5553 13.9239 20.5779C12.9973 20.6344 12.0595 20.6909 11.1329 20.77C9.2798 20.9169 7.42669 21.109 5.57358 21.335C4.98601 21.4141 4.47754 21.787 4.47754 22.431C4.47754 22.9734 4.98601 23.6062 5.57358 23.5271V23.5158Z" fill="#F8871F"/>
</svg>
