<svg width="41" height="32" viewBox="0 0 41 32" fill="none" xmlns="http://www.w3.org/2000/svg">
<g clip-path="url(#clip0_2243_485)">
<path d="M35.7772 1.01099C26.6375 -0.598827 17.389 0.255161 8.17016 0.0195782C6.43916 -0.0295016 4.64881 0.00976226 3.16509 1.01099C1.8891 1.85516 1.10767 3.22939 0.66256 4.65271C-0.435389 8.14719 0.10864 12.0147 0.365817 15.5975C0.533972 17.9337 0.702126 20.2699 0.87028 22.6061C0.998869 24.3337 1.09778 26.2184 1.95834 27.7693C2.86835 29.4184 4.47076 29.9386 6.22155 30.2723C8.43723 30.6944 10.6727 31.038 12.918 31.3128C17.6165 31.8822 22.3545 32.0981 27.0826 31.9607C29.3477 31.892 31.6326 31.7742 33.8879 31.519C35.6189 31.3227 37.3103 30.8613 38.5171 29.5361C41.3262 26.4638 41.0592 21.0748 40.9207 17.2269C40.7328 12.2993 39.8425 7.39136 38.2203 2.72878C37.8148 1.5705 35.9552 2.07111 36.3607 3.23921C37.6466 6.94964 38.4874 10.7975 38.8336 14.7042C39.1501 18.238 39.3579 22.1644 38.3984 25.6196C37.9137 27.3766 36.9938 28.8588 35.1342 29.3693C33.2746 29.8797 31.3359 29.8503 29.4862 29.9484C25.401 30.1644 21.306 30.1251 17.2307 29.8208C13.1554 29.5165 9.14941 29.222 5.38077 28.1423C3.41238 27.573 3.06618 25.5999 2.88813 23.8233C2.6903 21.8895 2.60128 19.9558 2.4628 18.022C2.21552 14.5374 1.70116 10.9447 2.06714 7.44044C2.20562 6.07602 2.51226 4.55455 3.37281 3.43553C4.44109 2.03185 6.11274 1.89443 7.75472 1.92387C16.9142 2.11038 26.2022 1.2662 35.2628 2.85639C36.4794 3.07234 36.9938 1.22694 35.7772 1.01099Z" fill="#F8871F"/>
<path d="M16.6768 10.9546C19.3277 12.9571 22.0677 14.8417 24.8867 16.5988L24.6889 15.0969C23.5019 16.108 22.3149 17.1288 21.128 18.1399L19.4365 19.5828L18.5463 20.3485C18.3979 20.4761 18.2496 20.6037 18.1012 20.7313L17.9232 20.8883C17.8045 20.9571 17.8341 20.9571 18.032 20.8883L18.4573 21.1337C18.2891 20.9669 18.2199 20.3779 18.1605 20.1129C18.0715 19.7693 18.0023 19.4159 17.933 19.0724C17.7946 18.2773 17.7253 17.4822 17.7055 16.6773C17.6759 15.0773 17.9034 13.5166 18.3485 11.9853C18.6947 10.7975 16.8351 10.2969 16.4889 11.4748C15.9646 13.2613 15.7174 15.1362 15.7767 17.0012C15.8064 17.9337 15.9251 18.8761 16.1031 19.7988C16.2515 20.5742 16.39 21.6442 16.8944 22.2822C17.4978 23.0577 18.4672 22.8908 19.1596 22.3411C19.941 21.7325 20.673 21.0552 21.4247 20.4172C22.9678 19.092 24.5108 17.7767 26.0638 16.4515C26.5485 16.0294 26.3605 15.254 25.866 14.9497C23.0469 13.1926 20.307 11.308 17.6561 9.30552C17.2406 8.99141 16.5779 9.23681 16.3405 9.64908C16.0537 10.1399 16.2713 10.6405 16.6867 10.9546H16.6768Z" fill="#F8871F"/>
</g>
<defs>
<clipPath id="clip0_2243_485">
<rect width="41" height="32" fill="white"/>
</clipPath>
</defs>
</svg>
