<svg width="164" height="148" viewBox="0 0 164 148" fill="none" xmlns="http://www.w3.org/2000/svg">
<g clip-path="url(#clip0_2204_719)">
<path d="M66.6788 43.2589C75.4293 42.1075 84.3258 42.891 92.7404 45.554C101.155 48.217 108.882 52.6946 115.377 58.6707L116.48 56.782C111.171 55.8563 105.793 55.3812 100.404 55.3617C100.206 55.3678 100.014 55.4246 99.8456 55.5265C99.6769 55.6284 99.5372 55.772 99.4401 55.9436C99.3429 56.1151 99.2916 56.3087 99.2909 56.5059C99.2903 56.703 99.3404 56.897 99.4365 57.0691L104.528 68.6129L106.311 67.2379C95.3267 53.3672 77.4218 48.9401 60.635 47.1723C59.124 47.0212 59.124 49.2876 60.635 49.4387C76.8627 51.1461 94.0877 55.4826 104.71 68.8395C105.571 69.9274 106.961 68.5373 106.493 67.4645L101.386 55.9057L100.404 57.613C105.589 57.6198 110.764 58.0595 115.876 58.9276C116.903 59.1089 117.87 57.8699 116.979 57.0389C110.275 50.853 102.298 46.2107 93.608 43.4384C84.918 40.6662 75.7261 39.8313 66.6788 40.9924C65.1679 41.1738 65.1679 43.4553 66.6788 43.2589Z" fill="#F8871F"/>
<path d="M54.5156 51.0857C51.3231 59.0074 50.049 67.5718 50.7974 76.0798C51.5458 84.5877 54.2954 92.7982 58.8218 100.041C58.9421 100.227 59.1135 100.373 59.3153 100.464C59.5171 100.555 59.7407 100.585 59.9594 100.551C60.178 100.518 60.3823 100.422 60.5477 100.275C60.7131 100.128 60.8326 99.9367 60.8918 99.7236L64.0346 86.1249L62.1308 86.6236C64.911 89.7966 67.807 92.8638 70.8189 95.8253C70.9799 95.9766 71.1812 96.0783 71.3986 96.118C71.616 96.1577 71.8403 96.1339 72.0444 96.0494C72.2486 95.9648 72.4241 95.8232 72.5497 95.6414C72.6754 95.4596 72.7459 95.2454 72.7529 95.0245C73.176 91.2169 71.6952 87.7568 70.3051 84.3118C68.915 80.8668 67.4947 76.9081 66.3615 73.1155C63.9349 65.4785 62.8661 57.4751 63.2036 49.469C63.2943 47.958 61.0278 47.958 60.9372 49.469C60.6007 57.2093 61.5608 64.9514 63.7778 72.3752C64.8354 76.077 66.0895 79.7184 67.4947 83.2994C68.8999 86.8804 70.9548 90.8542 70.5167 95.0245L72.4507 94.2237C69.4288 91.2622 66.5328 88.195 63.7627 85.0219C63.6225 84.883 63.4485 84.7831 63.2578 84.7321C63.0672 84.6811 62.8665 84.6808 62.6757 84.7312C62.4849 84.7816 62.3106 84.8809 62.17 85.0193C62.0293 85.1578 61.9273 85.3305 61.874 85.5205L58.7463 99.1192L60.8163 98.8472C56.4455 91.8623 53.7965 83.9391 53.0872 75.73C52.3779 67.5209 53.6288 59.2607 56.7367 51.6296C57.2806 50.2849 55.0897 49.6956 54.5458 51.0252L54.5156 51.0857Z" fill="#F8871F"/>
<path d="M56.4194 27.1973C53.2161 25.1122 49.0912 27.5298 47.8824 30.7783C46.3715 34.6615 47.9882 39.5721 49.7862 43.1078C51.403 46.2959 54.1076 49.1517 57.8699 49.469C61.6322 49.7863 64.7146 46.9305 66.014 43.682C66.645 41.9097 66.7757 39.9978 66.3919 38.1561C66.0081 36.3144 65.1246 34.6139 63.8382 33.2412C62.5724 31.7821 61.0323 30.586 59.3053 29.7207C57.4166 28.7083 54.9991 27.8471 52.8837 28.7083C51.9911 29.1054 51.2222 29.7361 50.6584 30.534C50.0946 31.3319 49.7567 32.2672 49.6805 33.2412C49.5753 35.582 50.0969 37.9084 51.1914 39.9801C52.7024 43.2589 55.951 46.5075 59.8039 44.7245C60.7657 44.2172 61.513 43.3811 61.9096 42.3687C62.3063 41.3563 62.3258 40.2351 61.9646 39.2095C61.5709 36.8635 60.3354 34.7416 58.4894 33.2412C56.782 32.1533 54.0774 32.1382 52.9442 34.0571C52.7074 34.4455 52.5581 34.8809 52.5069 35.3329C52.4557 35.785 52.5037 36.2427 52.6475 36.6743C52.7914 37.1058 53.0276 37.5008 53.3398 37.8317C53.652 38.1626 54.0326 38.4214 54.4551 38.59C55.7999 39.1491 56.3892 36.9582 55.0595 36.4142C54.7875 36.2933 54.7875 35.7645 54.8329 35.5379C54.8996 35.3067 55.0411 35.1042 55.2352 34.962C55.4294 34.8199 55.6651 34.7461 55.9056 34.7522C57.4166 34.7522 58.4138 36.2631 58.9276 37.487C59.4413 38.7109 60.4385 40.6449 59.5924 41.9292C59.2285 42.3521 58.7434 42.6528 58.2029 42.7907C57.6623 42.9285 57.0924 42.8968 56.5705 42.6998C53.9112 41.9595 52.6571 38.2576 52.0376 35.9005C51.8019 35.1452 51.7558 34.3434 51.9034 33.566C52.051 32.7887 52.3877 32.0596 52.8837 31.4432C54.0169 30.1135 55.9057 30.6877 57.2353 31.2316C62.0099 33.075 66.422 38.4994 63.6116 43.6668C63.0966 44.7582 62.2718 45.674 61.2401 46.3C60.2084 46.926 59.0153 47.2346 57.8095 47.1874C55.2559 46.9154 53.4126 44.8152 52.2189 42.6545C50.479 39.8267 49.5826 36.561 49.6351 33.2412C49.6669 32.4865 49.8698 31.7488 50.2284 31.084C50.587 30.4192 51.092 29.8445 51.7052 29.4034C52.2095 29.0086 52.8214 28.7757 53.4605 28.7352C54.0997 28.6948 54.7361 28.8487 55.2862 29.1767C56.51 29.9775 57.6433 28.0133 56.4194 27.2125V27.1973Z" fill="#F8871F"/>
<path d="M55.9057 36.3991C58.1254 33.7367 60.5072 31.2136 63.0374 28.8443C65.107 26.6068 67.7044 24.9237 70.5922 23.9488C71.2885 23.7452 72.0127 23.6534 72.7378 23.6768C73.4479 23.6768 73.8257 23.9488 73.8559 24.7043C73.8872 26.0485 73.5641 27.3774 72.9191 28.5572C71.5387 31.0042 69.3792 32.919 66.7846 33.9967C63.2991 35.3163 59.6282 36.0811 55.9057 36.2631C54.4702 36.4142 54.3947 38.6807 55.9057 38.5296C62.8863 37.7892 71.1513 36.5804 74.7927 29.6753C76.0468 27.3031 77.3311 22.332 73.6141 21.5161C70.1389 20.7455 66.4673 23.0271 63.8835 25.0367C60.3743 27.9475 57.1651 31.2022 54.304 34.7522C53.3823 35.8703 54.9689 37.487 55.9057 36.3689V36.3991Z" fill="#F8871F"/>
<path d="M53.5334 34.1629C48.4799 33.2517 43.3615 32.7465 38.2274 32.6519C34.2687 32.5764 28.799 32.1533 26.3512 36.0214C24.0848 39.6024 27.1218 43.3647 30.3553 44.921C34.0571 46.7039 38.3936 46.6132 42.443 46.583C47.7329 46.7713 52.9324 45.1748 57.2051 42.0501C58.3534 41.1738 57.2051 39.2095 56.0567 40.101C52.125 42.9871 47.3319 44.4569 42.4581 44.2712C38.318 44.2712 33.2563 44.5885 29.8264 41.8386C27.8017 40.2219 27.0916 37.6381 29.5091 35.9912C31.5489 34.6011 34.4953 34.8579 36.8373 34.8579C42.2554 34.8844 47.6605 35.3901 52.9895 36.3689C54.4249 36.6258 55.0293 34.4349 53.5939 34.178L53.5334 34.1629Z" fill="#F8871F"/>
<path d="M53.3672 29.1767C54.6818 22.2716 56.0719 14.7319 60.6501 9.12622C62.855 6.45111 65.7553 4.43617 69.0316 3.30318C72.308 2.17019 75.8334 1.96308 79.2198 2.70463C82.4042 3.47275 85.2906 5.16472 87.5165 7.56803C89.7424 9.97133 91.2085 12.9788 91.7306 16.2126C93.0149 23.4955 88.9958 29.8113 83.0275 33.5887C75.2913 38.6051 65.8629 39.6326 57.4317 43.0171C56.1021 43.546 56.6914 45.7369 58.0361 45.1929C66.5731 41.7781 76.0619 40.66 83.934 35.7041C90.265 31.6849 94.9187 25.1273 94.1633 17.4214C93.879 14.0037 92.6833 10.7248 90.7008 7.92642C88.7183 5.12803 86.0215 2.91258 82.8915 1.51097C79.4977 0.15294 75.8082 -0.295164 72.1881 0.211018C68.5679 0.7172 65.1428 2.16011 62.2517 4.39691C54.8782 10.1386 52.8384 19.8994 51.1914 28.5723C50.9195 29.9926 53.1104 30.597 53.3672 29.1616V29.1767Z" fill="#F8871F"/>
<path d="M53.7903 27.4542C46.9305 20.0958 38.9375 12.9338 28.9501 10.3803C21.0628 8.35563 11.8308 9.92703 5.72655 15.5327C-1.10301 21.7881 -1.51097 31.9418 2.8255 39.7535C7.55481 48.3508 17.4214 52.8837 26.88 54.168C38.5188 55.6378 50.2842 52.6708 59.8342 45.8577C61.0127 45.0267 59.8342 43.0625 58.7009 43.9086C51.051 49.3924 41.8678 52.3266 32.4555 52.2945C23.3897 52.2945 13.644 49.3632 7.44905 42.3825C1.70739 35.9307 -3.72482e-06 25.3993 6.04385 18.5244C11.0451 12.7828 19.6425 10.8185 26.8951 12.2086C37.0942 14.1879 45.3289 21.6521 52.1887 29.0558C53.1859 30.1286 54.7875 28.527 53.7903 27.4542Z" fill="#F8871F"/>
<path d="M111.056 48.23C126.658 67.3501 140.561 87.7955 152.607 109.333C153.317 110.603 155.267 109.469 154.556 108.185C142.408 86.4861 128.388 65.8891 112.657 46.6283C111.736 45.4951 110.149 47.1119 111.056 48.23Z" fill="#F8871F"/>
<path d="M101.824 57.8548C108.533 68.22 114.793 78.8572 120.605 89.7663C123.506 95.226 126.281 100.766 128.931 106.387C131.182 111.086 133.282 115.936 137.15 119.563C138.208 120.56 139.825 118.958 138.752 117.961C134.778 114.229 132.708 109.092 130.426 104.362C127.817 98.8926 125.083 93.4884 122.222 88.1496C116.531 77.4721 110.386 67.0415 103.788 56.8576C103.002 55.6488 101.038 56.782 101.824 58.0059V57.8548Z" fill="#F8871F"/>
<path d="M49.3027 71.3175C52.1921 96.4317 58.0763 121.11 66.8299 144.826C67.3285 146.186 69.5194 145.596 69.0057 144.237C60.3215 120.708 54.4682 96.2295 51.5692 71.3175C51.403 69.8065 49.1365 69.8065 49.3027 71.3175Z" fill="#F8871F"/>
<path d="M34.314 69.8367C38.0102 95.0081 44.3719 119.715 53.2917 143.542C53.3794 143.825 53.5722 144.064 53.8307 144.211C54.0891 144.357 54.3936 144.398 54.6818 144.327C55.0088 144.28 55.3219 144.163 55.5999 143.984C55.8779 143.806 56.1144 143.569 56.2934 143.292C56.4724 143.014 56.5897 142.701 56.6375 142.374C56.6853 142.047 56.6625 141.713 56.5705 141.396C56.2985 139.885 54.1076 140.565 54.3796 142L54.0774 142.136L55.4675 142.937C46.5526 119.11 40.196 94.4032 36.5049 69.2324C36.2933 67.7214 34.1024 68.4164 34.314 69.8367Z" fill="#F8871F"/>
<path d="M90.4916 29.0407C102.953 29.4039 115.373 30.6409 127.661 32.7426C129.172 32.9994 129.701 30.8085 128.266 30.5668C115.779 28.4194 103.156 27.1521 90.4916 26.7743C90.1911 26.7743 89.9028 26.8937 89.6903 27.1062C89.4778 27.3187 89.3584 27.607 89.3584 27.9075C89.3584 28.208 89.4778 28.4963 89.6903 28.7088C89.9028 28.9213 90.1911 29.0407 90.4916 29.0407Z" fill="#F8871F"/>
<path d="M90.4916 29.0407C90.7922 29.0407 91.0804 28.9213 91.2929 28.7088C91.5054 28.4963 91.6248 28.208 91.6248 27.9075C91.6248 27.607 91.5054 27.3187 91.2929 27.1062C91.0804 26.8937 90.7922 26.7743 90.4916 26.7743C90.1911 26.7743 89.9028 26.8937 89.6903 27.1062C89.4778 27.3187 89.3584 27.607 89.3584 27.9075C89.3584 28.208 89.4778 28.4963 89.6903 28.7088C89.9028 28.9213 90.1911 29.0407 90.4916 29.0407Z" fill="#F8871F"/>
<path d="M61.5113 29.8415C65.8025 29.494 70.0936 29.2371 74.3998 29.1012C75.9108 29.1012 75.9108 26.7743 74.3998 26.8347C70.0936 26.9707 65.8025 27.2276 61.5113 27.5751C60.0004 27.696 60.0004 29.9624 61.5113 29.8415Z" fill="#F8871F"/>
<path d="M30.9596 43.8935C34.4651 40.8716 37.9907 37.9151 41.5364 35.0241C41.7366 34.8093 41.8455 34.5252 41.8404 34.2316C41.8352 33.938 41.7163 33.6579 41.5086 33.4503C41.301 33.2427 41.0209 33.1237 40.7273 33.1186C40.4337 33.1134 40.1496 33.2223 39.9348 33.4225C36.379 36.3236 32.8534 39.2851 29.358 42.307C29.1436 42.5194 29.0224 42.8082 29.021 43.11C29.0196 43.4118 29.1381 43.7018 29.3505 43.9162C29.5629 44.1306 29.8517 44.2518 30.1535 44.2532C30.4553 44.2546 30.7453 44.1361 30.9596 43.9237V43.8935Z" fill="#F8871F"/>
<path d="M6.04385 66.4824C11.02 61.7682 16.0565 57.1195 21.1535 52.5362C22.2263 51.5541 20.6246 49.9676 19.5519 50.9346C14.465 55.538 9.45863 60.2169 4.53289 64.9714C3.47521 65.9838 5.07683 67.5854 6.13451 66.5731L6.04385 66.4824Z" fill="#F8871F"/>
<path d="M129.49 35.8703C131.454 41.6573 135.533 46.1448 138.978 50.9799C142.402 55.9849 145.255 61.357 147.485 66.9961C152.018 78.0111 155.448 89.585 161.854 99.7387C162.64 100.978 164.589 99.8445 163.819 98.6055C157.397 88.4216 154.043 76.8325 149.434 65.8025C147.308 60.4811 144.639 55.3926 141.472 50.6173C138.027 45.6009 133.66 41.068 131.665 35.2055C131.197 33.8305 129.006 34.4198 129.49 35.8098V35.8703Z" fill="#F8871F"/>
<path d="M109.273 52.8837C112.37 50.6173 115.392 48.2753 118.414 45.9182L122.841 42.443C124.157 41.3253 125.706 40.5149 127.374 40.0708C128.81 39.7686 128.205 37.5777 126.77 37.8799C123.249 38.6202 120.409 41.5062 117.704 43.6517C114.561 46.1146 111.418 48.5624 108.185 50.9195C107.022 51.7807 108.185 53.745 109.333 52.8837H109.273Z" fill="#F8871F"/>
<path d="M87.2733 65.6212C90.7381 64.2386 94.1008 62.6128 97.3363 60.7558C97.5632 60.5908 97.7208 60.3475 97.7786 60.073C97.8365 59.7985 97.7904 59.5123 97.6494 59.2698C97.5084 59.0273 97.2825 58.8456 97.0153 58.7601C96.7481 58.6746 96.4587 58.6912 96.2031 58.8067C93.1394 60.5723 89.959 62.1272 86.684 63.4605C86.3985 63.5514 86.1577 63.7465 86.0093 64.0068C85.861 64.2671 85.8159 64.5737 85.8832 64.8657C85.9677 65.1514 86.1599 65.3931 86.4193 65.5397C86.6787 65.6863 86.9849 65.7263 87.2733 65.6514V65.6212Z" fill="#F8871F"/>
<path d="M116.873 138.163C132.737 127.297 148.042 115.638 162.731 103.229C163.849 102.292 162.232 100.691 161.129 101.627C146.616 113.913 131.487 125.452 115.8 136.198C114.607 137.014 115.8 138.978 116.949 138.163H116.873Z" fill="#F8871F"/>
<path d="M82.3475 71.665C88.029 84.3494 92.6287 97.4912 96.0973 110.95C99.0134 122.388 100.54 134.778 108.336 144.055C109.273 145.173 110.875 143.557 109.938 142.454C102.02 133.04 100.796 119.789 97.7442 108.336C94.2874 95.4028 89.7902 82.7703 84.2967 70.562C83.7074 69.2324 81.7582 70.3807 82.3475 71.6952V71.665Z" fill="#F8871F"/>
<path d="M63.7476 68.8244C70.6073 68.764 77.4671 68.764 84.3269 68.8244C84.6274 68.8244 84.9157 68.705 85.1282 68.4925C85.3407 68.28 85.4601 67.9917 85.4601 67.6912C85.4601 67.3906 85.3407 67.1024 85.1282 66.8899C84.9157 66.6773 84.6274 66.5579 84.3269 66.5579C77.4671 66.5579 70.6073 66.5579 63.7476 66.5579C63.447 66.5579 63.1588 66.6773 62.9463 66.8899C62.7337 67.1024 62.6143 67.3906 62.6143 67.6912C62.6143 67.9917 62.7337 68.28 62.9463 68.4925C63.1588 68.705 63.447 68.8244 63.7476 68.8244Z" fill="#F8871F"/>
<path d="M3.02193 70.5469C19.2497 69.741 35.4925 69.2374 51.7505 69.0359C52.0511 69.0359 52.3393 68.9165 52.5518 68.704C52.7643 68.4915 52.8837 68.2033 52.8837 67.9027C52.8837 67.6022 52.7643 67.3139 52.5518 67.1014C52.3393 66.8889 52.0511 66.7695 51.7505 66.7695C35.5127 67.0415 19.2698 67.5451 3.02193 68.2804C1.51096 68.356 1.51096 70.6224 3.02193 70.5469Z" fill="#F8871F"/>
<path d="M0.951903 72.4205L19.6425 134.884C20.3527 137.271 21.0628 139.673 21.7881 142.061C22.3169 143.829 22.8307 145.566 24.6589 146.382C26.4872 147.198 29.1918 147.017 31.1712 147.138C33.906 147.289 36.6409 147.41 39.3757 147.531C50.0733 147.933 60.781 148.009 71.4988 147.757C83.6973 147.435 95.8706 146.684 108.019 145.506C109.53 145.37 109.53 143.103 108.019 143.239C87.4343 145.255 66.7454 146.001 46.0693 145.476C40.9622 145.335 35.8602 145.128 30.7632 144.856C28.5572 144.72 25.218 145.204 24.3114 142.695C23.4048 140.187 22.8004 137.543 21.9996 134.989L13.2209 105.556L3.12769 71.8161C3.02866 71.5501 2.83345 71.331 2.58064 71.202C2.32783 71.0731 2.03584 71.0437 1.76239 71.1196C1.48894 71.1956 1.25395 71.3714 1.10387 71.6123C0.9538 71.8531 0.899568 72.1416 0.951903 72.4205Z" fill="#F8871F"/>
</g>
<defs>
<clipPath id="clip0_2204_719">
<rect width="164" height="147.908" fill="white"/>
</clipPath>
</defs>
</svg>
