<svg width="18" height="22" viewBox="0 0 18 22" fill="none" xmlns="http://www.w3.org/2000/svg">
<path d="M15.9497 2.98646C14.1994 1.28132 11.6022 0.592486 9.26466 0.163377C6.65612 -0.322194 4.28473 0.231131 2.64734 2.41055C1.10029 4.45447 0.309826 7.18722 0.0613947 9.69412C-0.187037 12.201 0.309826 14.8321 1.71008 16.9438C4.4767 21.1107 11.1956 22.4545 15.2722 19.3942C17.1919 17.9488 18.355 15.5323 17.892 13.127C17.429 10.7217 15.4642 8.94882 13.2509 8.1019C10.6649 7.11946 7.25462 7.04042 4.74772 8.28257C2.38762 9.44569 0.863151 12.2236 1.68749 14.8095C2.1166 16.1533 4.23956 15.5774 3.81045 14.2223C3.27971 12.5398 4.34119 10.9024 5.86566 10.1797C7.5708 9.36664 9.81798 9.45698 11.6135 9.89738C13.4089 10.3378 15.0915 11.3767 15.6448 13.1835C16.1643 14.8547 15.3061 16.6389 13.9397 17.6552C10.9698 19.8572 5.76403 18.9538 3.68624 15.9501C1.45035 12.7205 1.9698 8.28257 3.66365 4.92875C4.10405 4.05924 4.66867 3.17843 5.5043 2.65899C6.40769 2.09437 7.49176 2.10566 8.50807 2.26375C10.4616 2.57994 12.9234 3.13326 14.3801 4.54481C15.3964 5.53853 16.9547 3.98019 15.9384 2.98646H15.9497Z" fill="#BABABA"/>
</svg>
