<svg width="19" height="22" viewBox="0 0 19 22" fill="none" xmlns="http://www.w3.org/2000/svg">
<path d="M2.56377 2.39552C5.8519 2.00004 9.14004 2.21473 12.3491 3.06218L11.5355 2.00004C11.5468 2.20343 9.931 3.16388 9.71631 3.31077C9.01574 3.80795 8.31518 4.29382 7.61461 4.7797C6.20218 5.74015 4.75586 6.6667 3.29823 7.55936C2.17958 8.24862 2.94795 9.77405 4.14569 9.57066C7.03834 9.08478 10.4056 8.6554 13.0496 10.2486C14.8801 11.356 17.0044 14.2373 15.0609 16.1808C11.6259 19.6385 5.71631 20.0226 1.63721 17.582C0.416873 16.8475 -0.690472 18.7571 0.529867 19.4803C4.68806 21.9661 10.1231 21.9435 14.2926 19.4916C15.3547 18.8701 16.4508 18.0678 17.1965 17.0735C18.0214 15.9548 18.1457 14.5311 17.8858 13.2091C17.4338 10.9153 15.592 8.97179 13.5242 7.98874C10.4056 6.49721 6.86885 6.88139 3.58071 7.44636L4.42817 9.45766C6.24738 8.33902 8.04399 7.17518 9.7954 5.95484C10.6316 5.37857 11.4564 4.7797 12.27 4.18083C13.027 3.62715 13.8293 3.03958 13.7502 2.00004C13.7163 1.51416 13.4338 1.06218 12.9366 0.937889C9.55812 0.0452339 6.04399 -0.225953 2.56377 0.192127C1.17394 0.361618 1.15134 2.56501 2.56377 2.39552Z" fill="#BABABA"/>
</svg>
