<svg width="18" height="22" viewBox="0 0 18 22" fill="none" xmlns="http://www.w3.org/2000/svg">
<path d="M3.0525 8.8277C1.96707 5.63926 4.89546 3.07267 7.7221 2.34906C9.18064 1.97594 10.7522 2.11162 11.7698 3.33273C12.7309 4.47468 13.1832 6.14805 13.398 7.60659C13.6241 9.14428 13.398 10.6141 12.1882 11.6996C11.0688 12.7058 9.58767 13.3503 8.27612 14.04C5.46079 15.4986 2.64546 16.9232 0.316318 19.1166C-0.271622 19.6707 -0.000264851 20.7787 0.802499 20.9596C6.03742 22.1807 11.4646 20.1455 16.6316 21.6493C17.9997 22.045 18.5764 19.9194 17.2196 19.5237C12.0073 18.0086 6.61406 20.0551 1.39044 18.834L1.87662 20.6769C4.18315 18.5174 7.0437 17.1832 9.81381 15.736C12.403 14.3792 15.1844 12.9094 15.6141 9.72091C15.9759 7.02996 15.0487 3.40056 13.0475 1.48976C10.8088 -0.658481 7.49597 -0.20622 4.952 1.10534C1.94446 2.63172 -0.226396 6.00107 0.926871 9.41564C1.37913 10.7498 3.50476 10.1732 3.0525 8.8277Z" fill="#F8871F"/>
</svg>
